<svg xmlns="http://www.w3.org/2000/svg" viewBox="-2 -2 278 51" width="278" height="51">
  <path d="M22.83 40.70 L22.83 31.90 L21.95 31.90 L21.95 21.73 Q21.95 18.70 20.38 17.16 Q18.81 15.62 15.79 15.62 Q14.08 15.62 12.26 15.68 Q10.45 15.73 8.80 15.79 Q7.15 15.84 5.94 15.95 L5.94 11.33 Q7.15 11.22 8.50 11.14 Q9.85 11.05 11.28 11.03 Q12.70 11.00 14.03 11.00 Q18.54 11.00 21.39 12.07 Q24.25 13.15 25.63 15.57 Q27.00 17.99 27.00 22.11 L27.00 40.70 L22.83 40.70 Z M13.20 41.47 Q9.90 41.47 7.50 40.35 Q5.11 39.21 3.82 37.07 Q2.53 34.93 2.53 31.90 Q2.53 28.76 3.93 26.68 Q5.34 24.59 8.03 23.51 Q10.73 22.44 14.52 22.44 L22.50 22.44 L22.50 26.40 L14.30 26.40 Q11.11 26.40 9.40 27.94 Q7.70 29.48 7.70 31.90 Q7.70 34.32 9.40 35.81 Q11.11 37.29 14.30 37.29 Q16.17 37.29 17.88 36.60 Q19.58 35.91 20.70 34.30 Q21.84 32.67 21.95 29.81 L23.38 31.90 Q23.10 35.04 21.86 37.16 Q20.62 39.27 18.45 40.37 Q16.28 41.47 13.20 41.47 Z M36.69 40.70 L36.69 11.33 L40.86 11.33 L40.86 23.93 L40.20 23.93 Q40.20 19.58 41.39 16.59 Q42.57 13.59 44.99 12.02 Q47.41 10.45 51.10 10.45 L51.31 10.45 Q56.87 10.45 59.54 13.91 Q62.20 17.38 62.20 23.93 L62.20 40.70 L56.92 40.70 L56.92 22.83 Q56.92 19.41 55.00 17.35 Q53.07 15.29 49.72 15.29 Q46.25 15.29 44.10 17.44 Q41.96 19.58 41.96 23.15 L41.96 40.70 L36.69 40.70 Z M84.15 41.69 Q81.01 41.69 78.37 40.54 Q75.74 39.38 73.78 37.29 Q71.83 35.20 70.75 32.45 Q69.69 29.70 69.69 26.51 L69.69 25.52 Q69.69 22.39 70.73 19.64 Q71.77 16.89 73.67 14.80 Q75.57 12.70 78.19 11.52 Q80.80 10.34 83.99 10.34 Q87.34 10.34 90.09 11.75 Q92.84 13.15 94.60 16.12 Q96.36 19.09 96.58 23.81 L94.38 20.30 L94.38 0.55 L99.66 0.55 L99.66 40.70 L95.48 40.70 L95.48 27.66 L97.02 27.66 Q96.80 32.67 94.93 35.78 Q93.06 38.89 90.23 40.29 Q87.40 41.69 84.15 41.69 Z M84.86 37.07 Q87.56 37.07 89.76 35.86 Q91.96 34.65 93.28 32.37 Q94.60 30.09 94.60 27.00 L94.60 24.48 Q94.60 21.45 93.25 19.34 Q91.90 17.21 89.68 16.09 Q87.45 14.96 84.81 14.96 Q81.90 14.96 79.66 16.34 Q77.44 17.71 76.20 20.19 Q74.96 22.66 74.96 26.01 Q74.96 29.37 76.23 31.87 Q77.50 34.38 79.75 35.72 Q82.00 37.07 84.86 37.07 Z M109.78 40.70 L109.78 11.33 L113.96 11.33 L113.96 23.43 L113.74 23.43 Q113.74 17.00 116.57 14.00 Q119.41 11.00 125.07 11.00 L126.06 11.00 L126.06 15.73 L124.19 15.73 Q119.79 15.73 117.42 18.06 Q115.06 20.40 115.06 24.80 L115.06 40.70 L109.78 40.70 Z M133.76 40.70 L133.76 11.33 L139.04 11.33 L139.04 40.70 L133.76 40.70 Z M129.25 15.51 L129.25 11.33 L139.04 11.33 L139.04 15.51 L129.25 15.51 Z M135.24 6.60 Q133.48 6.60 132.63 5.66 Q131.78 4.73 131.78 3.30 Q131.78 1.87 132.63 0.94 Q133.48 0.00 135.24 0.00 Q137.01 0.00 137.86 0.94 Q138.71 1.87 138.71 3.30 Q138.71 4.73 137.86 5.66 Q137.01 6.60 135.24 6.60 Z M149.27 40.70 L149.27 11.33 L153.45 11.33 L153.45 23.93 L152.79 23.93 Q152.79 19.58 153.97 16.59 Q155.16 13.59 157.57 12.02 Q160.00 10.45 163.68 10.45 L163.90 10.45 Q169.46 10.45 172.12 13.91 Q174.79 17.38 174.79 23.93 L174.79 40.70 L169.51 40.70 L169.51 22.83 Q169.51 19.41 167.58 17.35 Q165.66 15.29 162.31 15.29 Q158.84 15.29 156.69 17.44 Q154.55 19.58 154.55 23.15 L154.55 40.70 L149.27 40.70 Z M198.00 41.69 Q194.15 41.69 191.23 40.37 Q188.32 39.05 186.31 36.88 Q184.31 34.70 183.29 32.01 Q182.27 29.31 182.27 26.51 L182.27 25.52 Q182.27 22.71 183.31 20.00 Q184.36 17.27 186.40 15.10 Q188.43 12.93 191.35 11.64 Q194.26 10.34 198.00 10.34 Q201.74 10.34 204.65 11.64 Q207.57 12.93 209.60 15.10 Q211.64 17.27 212.68 20.00 Q213.73 22.71 213.73 25.52 L213.73 26.51 Q213.73 29.31 212.71 32.01 Q211.70 34.70 209.69 36.88 Q207.68 39.05 204.76 40.37 Q201.85 41.69 198.00 41.69 Z M198.00 36.96 Q201.30 36.96 203.64 35.51 Q205.97 34.05 207.21 31.57 Q208.45 29.10 208.45 26.01 Q208.45 22.88 207.18 20.40 Q205.92 17.93 203.58 16.50 Q201.25 15.07 198.00 15.07 Q194.81 15.07 192.45 16.50 Q190.08 17.93 188.81 20.40 Q187.55 22.88 187.55 26.01 Q187.55 29.10 188.79 31.57 Q190.02 34.05 192.36 35.51 Q194.70 36.96 198.00 36.96 Z M222.42 40.70 L222.42 9.85 Q222.42 4.95 225.00 2.64 Q227.59 0.33 232.59 0.33 L236.23 0.33 L236.23 4.73 L231.71 4.73 Q229.68 4.73 228.58 5.86 Q227.48 6.99 227.48 8.96 L227.48 40.70 L222.42 40.70 Z M218.35 15.62 L218.35 11.66 L236.78 11.66 L236.78 15.62 L218.35 15.62 Z M243.26 40.70 L243.26 9.85 Q243.26 4.95 245.85 2.64 Q248.43 0.33 253.44 0.33 L257.07 0.33 L257.07 4.73 L252.56 4.73 Q250.52 4.73 249.42 5.86 Q248.32 6.99 248.32 8.96 L248.32 40.70 L243.26 40.70 Z M239.20 15.62 L239.20 11.66 L257.62 11.66 L257.62 15.62 L239.20 15.62 Z" fill="#ffffff" stroke="#ffffff" stroke-width="2.5" stroke-linejoin="round" paint-order="stroke fill"/>
  <path d="M262.29 40.70 L262.29 33.99 L268.68 33.99 L268.68 40.70 L262.29 40.70 Z" fill="#666666" stroke="#666666" stroke-width="2.5" stroke-linejoin="round" paint-order="stroke fill"/>
</svg>